<?xml version="1.0" encoding="utf-8"?>
<!-- Generator: Adobe Illustrator 26.5.0, SVG Export Plug-In . SVG Version: 6.00 Build 0)  -->
<svg version="1.1" id="Layer_1" xmlns="http://www.w3.org/2000/svg" xmlns:xlink="http://www.w3.org/1999/xlink" x="0px" y="0px"
	 viewBox="0 0 16 16" style="enable-background:new 0 0 16 16;" xml:space="preserve">
<style type="text/css">
	.st0{fill:#9B1C1F;stroke:#9B1C1F;stroke-width:2;stroke-miterlimit:10;}
	.st1{fill:#9B1C1F;}
	.st2{fill:#FDFEFE;}
</style>
<g>
	<path class="st1" d="M15.5,13.14H0.45c0,0,2.62-4.61,4.27-7.87c0.5-0.98,0.9-1.83,1.13-2.41h4.07c0,0,0.5,1.01,1.22,2.41
		C12.46,7.84,14.5,11.74,15.5,13.14z"/>
	<g>
		<path class="st2" d="M11.17,5.27H4.75c0.5-0.98,0.9-1.83,1.13-2.41h4.07C9.95,2.86,10.45,3.87,11.17,5.27z"/>
	</g>
	<path class="st1" d="M16,13.4H0l0.22-0.39c0.03-0.05,2.64-4.64,4.26-7.86C5.03,4.09,5.4,3.28,5.6,2.77L5.67,2.6h4.41l0.07,0.14
		c0,0,0.5,1.01,1.22,2.41c1.19,2.32,3.33,6.41,4.34,7.84L16,13.4z M0.9,12.88h14.11c-1.03-1.6-2.77-4.9-4.1-7.49
		C10.35,4.3,9.92,3.45,9.76,3.12H6.02C5.8,3.65,5.44,4.41,4.95,5.39C3.59,8.07,1.56,11.7,0.9,12.88z"/>
</g>
</svg>
