<?xml version="1.0" encoding="utf-8"?>
<!-- Generator: Adobe Illustrator 26.5.0, SVG Export Plug-In . SVG Version: 6.00 Build 0)  -->
<svg version="1.1" id="Layer_1" xmlns="http://www.w3.org/2000/svg" xmlns:xlink="http://www.w3.org/1999/xlink" x="0px" y="0px"
	 viewBox="0 0 337.59 32" style="enable-background:new 0 0 337.59 32;" xml:space="preserve">
<style type="text/css">
	.st0{fill:#9B1C1F;stroke:#9B1C1F;stroke-width:2;stroke-miterlimit:10;}
	.st1{fill:#9B1C1F;}
	.st2{fill:#FDFEFE;}
	.st3{fill:#C1282D;}
</style>
<g>
	<g>
		<path class="st3" d="M22.95,0.16v19.99c0,3.89-1,6.86-2.97,8.83c-1.97,1.96-4.86,2.96-8.57,2.96c-2.11,0-4.09-0.39-5.87-1.19
			c-1.81-0.8-3.31-1.96-4.46-3.46l-0.51-0.64l5.1-6.12l0.77,1.01c0.73,0.95,1.49,1.68,2.27,2.16c0.74,0.45,1.52,0.67,2.37,0.67
			c1.54,0,3.13-0.46,3.13-3.84V7.61H3.91V0.16H22.95z"/>
	</g>
	<g>
		<path class="st3" d="M104.85,5.55c-1.14-1.74-2.76-3.1-4.83-4.03c-2.02-0.9-4.44-1.37-7.19-1.37H79.15v31.29h8.8v-8.07h4.88
			c2.76,0,5.18-0.46,7.19-1.37c2.06-0.92,3.68-2.28,4.83-4.03c1.13-1.75,1.71-3.83,1.71-6.19C106.56,9.4,105.98,7.3,104.85,5.55z
			 M92.46,15.84h-4.5V7.7h4.5c1.83,0,3.19,0.36,4.03,1.09c0.8,0.69,1.19,1.67,1.19,2.99c0,1.3-0.39,2.26-1.19,2.95
			C95.64,15.46,94.29,15.84,92.46,15.84z"/>
	</g>
	<g>
		<polygon class="st3" points="142.83,0.16 129.28,31.45 121.26,31.45 107.76,0.16 117.29,0.16 125.53,19.5 133.89,0.16 		"/>
	</g>
	<g>
		<polygon class="st3" points="170.51,23.99 170.51,31.45 145.84,31.45 145.84,0.16 169.98,0.16 169.98,7.61 154.59,7.61 
			154.59,11.95 168.18,11.95 168.18,19.24 154.59,19.24 154.59,23.99 		"/>
	</g>
	<polygon class="st3" points="197.17,0.16 197.17,16.09 184.11,0.16 177.02,0.16 177.02,31.45 185.73,31.45 185.73,15.5 
		198.83,31.45 205.88,31.45 205.88,0.16 	"/>
	<polygon class="st3" points="210.63,0.16 210.63,7.7 220,7.7 220,31.45 228.79,31.45 228.79,7.7 238.16,7.7 238.16,0.16 	"/>
	<path class="st3" d="M261.97,0.16v17.15c0,2.51-0.49,4.3-1.44,5.33c-0.95,1.02-2.28,1.52-4.07,1.52c-1.79,0-3.12-0.5-4.07-1.52
		c-0.96-1.03-1.44-2.82-1.44-5.33V0.16h-8.8v17.4c0,4.55,1.28,8.13,3.81,10.63c2.53,2.5,6.04,3.76,10.45,3.76
		c4.41,0,7.93-1.27,10.45-3.76c2.53-2.5,3.81-6.07,3.81-10.63V0.16H261.97z"/>
	<path class="st3" d="M300.38,21.44c1.58-0.88,2.85-2.04,3.79-3.47c1.14-1.73,1.71-3.81,1.71-6.18c0-2.39-0.58-4.49-1.71-6.24
		c-1.13-1.75-2.76-3.1-4.82-4.03c-2.02-0.91-4.44-1.36-7.19-1.36h-13.68v31.29h8.8v-8.15h4.67l5.62,8.15h9.79L300.38,21.44z
		 M295.8,8.79c0.81,0.7,1.2,1.68,1.2,3c0,1.3-0.39,2.27-1.2,2.98c-0.84,0.73-2.19,1.11-4.01,1.11h-4.51V7.7h4.51
		C293.61,7.7,294.97,8.07,295.8,8.79z"/>
	<polygon class="st3" points="321.1,23.99 321.1,19.24 334.68,19.24 334.68,11.95 321.1,11.95 321.1,7.62 336.48,7.62 336.48,0.16 
		312.34,0.16 312.34,31.45 337.03,31.45 337.03,23.99 	"/>
	<path class="st3" d="M70.45,30.25c-2.7-4.15-8.47-16.05-11.66-22.78c-1.92-4.07-3.27-6.99-3.27-7.01l-0.19-0.41H43.48L43.3,0.54
		c-0.55,1.5-1.55,3.84-3,6.93c-4.38,9.35-11.39,22.7-11.45,22.84l-0.6,1.14h42.98L70.45,30.25z M41.72,7.81
		c1.24-2.66,2.15-4.75,2.71-6.24h10.02c0.42,0.91,1.51,3.23,2.93,6.24H41.72z"/>
</g>
</svg>
